<mxfile host="app.diagrams.net" modified="2024-04-29T03:29:04.507Z" agent="Mozilla/5.0 (Windows NT 10.0; Win64; x64) AppleWebKit/537.36 (KHTML, like Gecko) Chrome/121.0.0.0 Safari/537.36 OPR/107.0.0.0" etag="8Vh4EEhoWV2yLDJbebU5" version="24.3.1" type="github">
  <diagram name="Page-1" id="e56a1550-8fbb-45ad-956c-1786394a9013">
    <mxGraphModel dx="2773" dy="1897" grid="1" gridSize="10" guides="1" tooltips="1" connect="1" arrows="1" fold="1" page="1" pageScale="1" pageWidth="1100" pageHeight="850" background="none" math="0" shadow="0">
      <root>
        <mxCell id="0" />
        <mxCell id="1" parent="0" />
        <mxCell id="WFMInWg6QyuqaIIcyarB-54" value="Arquitetura" style="swimlane;" vertex="1" parent="1">
          <mxGeometry x="-160" y="-50" width="1450" height="730" as="geometry">
            <mxRectangle x="120" y="-50" width="90" height="30" as="alternateBounds" />
          </mxGeometry>
        </mxCell>
        <mxCell id="WFMInWg6QyuqaIIcyarB-32" value="Servidor" style="swimlane;" vertex="1" parent="WFMInWg6QyuqaIIcyarB-54">
          <mxGeometry x="290" y="50" width="840" height="660" as="geometry">
            <mxRectangle x="290" y="50" width="100" height="30" as="alternateBounds" />
          </mxGeometry>
        </mxCell>
        <mxCell id="WFMInWg6QyuqaIIcyarB-31" value="Views" style="swimlane;" vertex="1" parent="WFMInWg6QyuqaIIcyarB-32">
          <mxGeometry x="45" y="100" width="200" height="520" as="geometry">
            <mxRectangle x="45" y="100" width="70" height="30" as="alternateBounds" />
          </mxGeometry>
        </mxCell>
        <mxCell id="WFMInWg6QyuqaIIcyarB-34" value="Login" style="swimlane;fontStyle=0;childLayout=stackLayout;horizontal=1;startSize=26;fillColor=none;horizontalStack=0;resizeParent=1;resizeParentMax=0;resizeLast=0;collapsible=1;marginBottom=0;html=1;" vertex="1" parent="WFMInWg6QyuqaIIcyarB-31">
          <mxGeometry x="20" y="40" width="160" height="104" as="geometry" />
        </mxCell>
        <mxCell id="WFMInWg6QyuqaIIcyarB-36" value="email" style="text;strokeColor=none;fillColor=none;align=left;verticalAlign=top;spacingLeft=4;spacingRight=4;overflow=hidden;rotatable=0;points=[[0,0.5],[1,0.5]];portConstraint=eastwest;whiteSpace=wrap;html=1;" vertex="1" parent="WFMInWg6QyuqaIIcyarB-34">
          <mxGeometry y="26" width="160" height="26" as="geometry" />
        </mxCell>
        <mxCell id="WFMInWg6QyuqaIIcyarB-35" value="password" style="text;strokeColor=none;fillColor=none;align=left;verticalAlign=top;spacingLeft=4;spacingRight=4;overflow=hidden;rotatable=0;points=[[0,0.5],[1,0.5]];portConstraint=eastwest;whiteSpace=wrap;html=1;" vertex="1" parent="WFMInWg6QyuqaIIcyarB-34">
          <mxGeometry y="52" width="160" height="26" as="geometry" />
        </mxCell>
        <mxCell id="WFMInWg6QyuqaIIcyarB-37" value="submit" style="text;strokeColor=none;fillColor=none;align=left;verticalAlign=top;spacingLeft=4;spacingRight=4;overflow=hidden;rotatable=0;points=[[0,0.5],[1,0.5]];portConstraint=eastwest;whiteSpace=wrap;html=1;" vertex="1" parent="WFMInWg6QyuqaIIcyarB-34">
          <mxGeometry y="78" width="160" height="26" as="geometry" />
        </mxCell>
        <mxCell id="WFMInWg6QyuqaIIcyarB-50" value="HomePage" style="swimlane;fontStyle=0;childLayout=stackLayout;horizontal=1;startSize=26;fillColor=none;horizontalStack=0;resizeParent=1;resizeParentMax=0;resizeLast=0;collapsible=1;marginBottom=0;html=1;" vertex="1" parent="WFMInWg6QyuqaIIcyarB-31">
          <mxGeometry x="20" y="170" width="160" height="262" as="geometry" />
        </mxCell>
        <mxCell id="WFMInWg6QyuqaIIcyarB-51" value="navbar" style="text;strokeColor=none;fillColor=none;align=left;verticalAlign=top;spacingLeft=4;spacingRight=4;overflow=hidden;rotatable=0;points=[[0,0.5],[1,0.5]];portConstraint=eastwest;whiteSpace=wrap;html=1;" vertex="1" parent="WFMInWg6QyuqaIIcyarB-50">
          <mxGeometry y="26" width="160" height="26" as="geometry" />
        </mxCell>
        <mxCell id="WFMInWg6QyuqaIIcyarB-52" value="external_profiles" style="text;strokeColor=none;fillColor=none;align=left;verticalAlign=top;spacingLeft=4;spacingRight=4;overflow=hidden;rotatable=0;points=[[0,0.5],[1,0.5]];portConstraint=eastwest;whiteSpace=wrap;html=1;" vertex="1" parent="WFMInWg6QyuqaIIcyarB-50">
          <mxGeometry y="52" width="160" height="26" as="geometry" />
        </mxCell>
        <mxCell id="WFMInWg6QyuqaIIcyarB-53" value="internal_&lt;span style=&quot;background-color: initial;&quot;&gt;profile&lt;/span&gt;" style="text;strokeColor=none;fillColor=none;align=left;verticalAlign=top;spacingLeft=4;spacingRight=4;overflow=hidden;rotatable=0;points=[[0,0.5],[1,0.5]];portConstraint=eastwest;whiteSpace=wrap;html=1;container=0;" vertex="1" parent="WFMInWg6QyuqaIIcyarB-50">
          <mxGeometry y="78" width="160" height="26" as="geometry" />
        </mxCell>
        <mxCell id="WFMInWg6QyuqaIIcyarB-184" value="grupo" style="text;strokeColor=none;fillColor=none;align=left;verticalAlign=top;spacingLeft=4;spacingRight=4;overflow=hidden;rotatable=0;points=[[0,0.5],[1,0.5]];portConstraint=eastwest;whiteSpace=wrap;html=1;container=0;" vertex="1" parent="WFMInWg6QyuqaIIcyarB-50">
          <mxGeometry y="104" width="160" height="26" as="geometry" />
        </mxCell>
        <mxCell id="WFMInWg6QyuqaIIcyarB-187" value="avaliaco&lt;span style=&quot;background-color: initial;&quot;&gt;es&lt;/span&gt;" style="text;strokeColor=none;fillColor=none;align=left;verticalAlign=top;spacingLeft=4;spacingRight=4;overflow=hidden;rotatable=0;points=[[0,0.5],[1,0.5]];portConstraint=eastwest;whiteSpace=wrap;html=1;container=0;" vertex="1" parent="WFMInWg6QyuqaIIcyarB-50">
          <mxGeometry y="130" width="160" height="26" as="geometry" />
        </mxCell>
        <mxCell id="WFMInWg6QyuqaIIcyarB-188" value="feedbacks" style="text;strokeColor=none;fillColor=none;align=left;verticalAlign=top;spacingLeft=4;spacingRight=4;overflow=hidden;rotatable=0;points=[[0,0.5],[1,0.5]];portConstraint=eastwest;whiteSpace=wrap;html=1;container=0;" vertex="1" parent="WFMInWg6QyuqaIIcyarB-50">
          <mxGeometry y="156" width="160" height="22" as="geometry" />
        </mxCell>
        <mxCell id="WFMInWg6QyuqaIIcyarB-189" value="game_info" style="text;strokeColor=none;fillColor=none;align=left;verticalAlign=top;spacingLeft=4;spacingRight=4;overflow=hidden;rotatable=0;points=[[0,0.5],[1,0.5]];portConstraint=eastwest;whiteSpace=wrap;html=1;container=0;" vertex="1" parent="WFMInWg6QyuqaIIcyarB-50">
          <mxGeometry y="178" width="160" height="28" as="geometry" />
        </mxCell>
        <mxCell id="WFMInWg6QyuqaIIcyarB-190" value="game_indicators" style="text;strokeColor=none;fillColor=none;align=left;verticalAlign=top;spacingLeft=4;spacingRight=4;overflow=hidden;rotatable=0;points=[[0,0.5],[1,0.5]];portConstraint=eastwest;whiteSpace=wrap;html=1;container=0;" vertex="1" parent="WFMInWg6QyuqaIIcyarB-50">
          <mxGeometry y="206" width="160" height="28" as="geometry" />
        </mxCell>
        <mxCell id="WFMInWg6QyuqaIIcyarB-191" value="hapiness_meter" style="text;strokeColor=none;fillColor=none;align=left;verticalAlign=top;spacingLeft=4;spacingRight=4;overflow=hidden;rotatable=0;points=[[0,0.5],[1,0.5]];portConstraint=eastwest;whiteSpace=wrap;html=1;container=0;" vertex="1" parent="WFMInWg6QyuqaIIcyarB-50">
          <mxGeometry y="234" width="160" height="28" as="geometry" />
        </mxCell>
        <mxCell id="WFMInWg6QyuqaIIcyarB-33" value="Models" style="swimlane;" vertex="1" parent="WFMInWg6QyuqaIIcyarB-32">
          <mxGeometry x="595" y="100" width="200" height="520" as="geometry">
            <mxRectangle x="595" y="100" width="80" height="30" as="alternateBounds" />
          </mxGeometry>
        </mxCell>
        <mxCell id="WFMInWg6QyuqaIIcyarB-81" value="User" style="swimlane;fontStyle=0;childLayout=stackLayout;horizontal=1;startSize=26;fillColor=none;horizontalStack=0;resizeParent=1;resizeParentMax=0;resizeLast=0;collapsible=1;marginBottom=0;html=1;" vertex="1" parent="WFMInWg6QyuqaIIcyarB-33">
          <mxGeometry x="20" y="38" width="160" height="260" as="geometry" />
        </mxCell>
        <mxCell id="WFMInWg6QyuqaIIcyarB-82" value="&lt;b&gt;id&lt;/b&gt;" style="text;strokeColor=none;fillColor=none;align=left;verticalAlign=top;spacingLeft=4;spacingRight=4;overflow=hidden;rotatable=0;points=[[0,0.5],[1,0.5]];portConstraint=eastwest;whiteSpace=wrap;html=1;" vertex="1" parent="WFMInWg6QyuqaIIcyarB-81">
          <mxGeometry y="26" width="160" height="26" as="geometry" />
        </mxCell>
        <mxCell id="WFMInWg6QyuqaIIcyarB-208" value="type" style="text;strokeColor=none;fillColor=none;align=left;verticalAlign=top;spacingLeft=4;spacingRight=4;overflow=hidden;rotatable=0;points=[[0,0.5],[1,0.5]];portConstraint=eastwest;whiteSpace=wrap;html=1;" vertex="1" parent="WFMInWg6QyuqaIIcyarB-81">
          <mxGeometry y="52" width="160" height="26" as="geometry" />
        </mxCell>
        <mxCell id="WFMInWg6QyuqaIIcyarB-83" value="name" style="text;strokeColor=none;fillColor=none;align=left;verticalAlign=top;spacingLeft=4;spacingRight=4;overflow=hidden;rotatable=0;points=[[0,0.5],[1,0.5]];portConstraint=eastwest;whiteSpace=wrap;html=1;" vertex="1" parent="WFMInWg6QyuqaIIcyarB-81">
          <mxGeometry y="78" width="160" height="26" as="geometry" />
        </mxCell>
        <mxCell id="WFMInWg6QyuqaIIcyarB-84" value="email" style="text;strokeColor=none;fillColor=none;align=left;verticalAlign=top;spacingLeft=4;spacingRight=4;overflow=hidden;rotatable=0;points=[[0,0.5],[1,0.5]];portConstraint=eastwest;whiteSpace=wrap;html=1;" vertex="1" parent="WFMInWg6QyuqaIIcyarB-81">
          <mxGeometry y="104" width="160" height="26" as="geometry" />
        </mxCell>
        <mxCell id="WFMInWg6QyuqaIIcyarB-197" value="password" style="text;strokeColor=none;fillColor=none;align=left;verticalAlign=top;spacingLeft=4;spacingRight=4;overflow=hidden;rotatable=0;points=[[0,0.5],[1,0.5]];portConstraint=eastwest;whiteSpace=wrap;html=1;" vertex="1" parent="WFMInWg6QyuqaIIcyarB-81">
          <mxGeometry y="130" width="160" height="26" as="geometry" />
        </mxCell>
        <mxCell id="WFMInWg6QyuqaIIcyarB-198" value="contry" style="text;strokeColor=none;fillColor=none;align=left;verticalAlign=top;spacingLeft=4;spacingRight=4;overflow=hidden;rotatable=0;points=[[0,0.5],[1,0.5]];portConstraint=eastwest;whiteSpace=wrap;html=1;" vertex="1" parent="WFMInWg6QyuqaIIcyarB-81">
          <mxGeometry y="156" width="160" height="26" as="geometry" />
        </mxCell>
        <mxCell id="WFMInWg6QyuqaIIcyarB-201" value="group_id" style="text;strokeColor=none;fillColor=none;align=left;verticalAlign=top;spacingLeft=4;spacingRight=4;overflow=hidden;rotatable=0;points=[[0,0.5],[1,0.5]];portConstraint=eastwest;whiteSpace=wrap;html=1;" vertex="1" parent="WFMInWg6QyuqaIIcyarB-81">
          <mxGeometry y="182" width="160" height="26" as="geometry" />
        </mxCell>
        <mxCell id="WFMInWg6QyuqaIIcyarB-199" value="birthday" style="text;strokeColor=none;fillColor=none;align=left;verticalAlign=top;spacingLeft=4;spacingRight=4;overflow=hidden;rotatable=0;points=[[0,0.5],[1,0.5]];portConstraint=eastwest;whiteSpace=wrap;html=1;" vertex="1" parent="WFMInWg6QyuqaIIcyarB-81">
          <mxGeometry y="208" width="160" height="26" as="geometry" />
        </mxCell>
        <mxCell id="WFMInWg6QyuqaIIcyarB-200" value="gender" style="text;strokeColor=none;fillColor=none;align=left;verticalAlign=top;spacingLeft=4;spacingRight=4;overflow=hidden;rotatable=0;points=[[0,0.5],[1,0.5]];portConstraint=eastwest;whiteSpace=wrap;html=1;" vertex="1" parent="WFMInWg6QyuqaIIcyarB-81">
          <mxGeometry y="234" width="160" height="26" as="geometry" />
        </mxCell>
        <mxCell id="WFMInWg6QyuqaIIcyarB-85" value="Group" style="swimlane;fontStyle=0;childLayout=stackLayout;horizontal=1;startSize=26;fillColor=none;horizontalStack=0;resizeParent=1;resizeParentMax=0;resizeLast=0;collapsible=1;marginBottom=0;html=1;" vertex="1" parent="WFMInWg6QyuqaIIcyarB-33">
          <mxGeometry x="20" y="310" width="160" height="182" as="geometry" />
        </mxCell>
        <mxCell id="WFMInWg6QyuqaIIcyarB-86" value="&lt;b&gt;id&lt;/b&gt;" style="text;strokeColor=none;fillColor=none;align=left;verticalAlign=top;spacingLeft=4;spacingRight=4;overflow=hidden;rotatable=0;points=[[0,0.5],[1,0.5]];portConstraint=eastwest;whiteSpace=wrap;html=1;" vertex="1" parent="WFMInWg6QyuqaIIcyarB-85">
          <mxGeometry y="26" width="160" height="26" as="geometry" />
        </mxCell>
        <mxCell id="WFMInWg6QyuqaIIcyarB-87" value="name" style="text;strokeColor=none;fillColor=none;align=left;verticalAlign=top;spacingLeft=4;spacingRight=4;overflow=hidden;rotatable=0;points=[[0,0.5],[1,0.5]];portConstraint=eastwest;whiteSpace=wrap;html=1;" vertex="1" parent="WFMInWg6QyuqaIIcyarB-85">
          <mxGeometry y="52" width="160" height="26" as="geometry" />
        </mxCell>
        <mxCell id="WFMInWg6QyuqaIIcyarB-88" value="users_names" style="text;strokeColor=none;fillColor=none;align=left;verticalAlign=top;spacingLeft=4;spacingRight=4;overflow=hidden;rotatable=0;points=[[0,0.5],[1,0.5]];portConstraint=eastwest;whiteSpace=wrap;html=1;" vertex="1" parent="WFMInWg6QyuqaIIcyarB-85">
          <mxGeometry y="78" width="160" height="26" as="geometry" />
        </mxCell>
        <mxCell id="WFMInWg6QyuqaIIcyarB-203" value="users_id" style="text;strokeColor=none;fillColor=none;align=left;verticalAlign=top;spacingLeft=4;spacingRight=4;overflow=hidden;rotatable=0;points=[[0,0.5],[1,0.5]];portConstraint=eastwest;whiteSpace=wrap;html=1;" vertex="1" parent="WFMInWg6QyuqaIIcyarB-85">
          <mxGeometry y="104" width="160" height="26" as="geometry" />
        </mxCell>
        <mxCell id="WFMInWg6QyuqaIIcyarB-205" value="tutor_name" style="text;strokeColor=none;fillColor=none;align=left;verticalAlign=top;spacingLeft=4;spacingRight=4;overflow=hidden;rotatable=0;points=[[0,0.5],[1,0.5]];portConstraint=eastwest;whiteSpace=wrap;html=1;" vertex="1" parent="WFMInWg6QyuqaIIcyarB-85">
          <mxGeometry y="130" width="160" height="26" as="geometry" />
        </mxCell>
        <mxCell id="WFMInWg6QyuqaIIcyarB-206" value="tutor_id" style="text;strokeColor=none;fillColor=none;align=left;verticalAlign=top;spacingLeft=4;spacingRight=4;overflow=hidden;rotatable=0;points=[[0,0.5],[1,0.5]];portConstraint=eastwest;whiteSpace=wrap;html=1;" vertex="1" parent="WFMInWg6QyuqaIIcyarB-85">
          <mxGeometry y="156" width="160" height="26" as="geometry" />
        </mxCell>
        <mxCell id="WFMInWg6QyuqaIIcyarB-213" style="edgeStyle=orthogonalEdgeStyle;rounded=0;orthogonalLoop=1;jettySize=auto;html=1;endArrow=none;endFill=0;curved=1;" edge="1" parent="WFMInWg6QyuqaIIcyarB-33" source="WFMInWg6QyuqaIIcyarB-201" target="WFMInWg6QyuqaIIcyarB-86">
          <mxGeometry relative="1" as="geometry">
            <Array as="points">
              <mxPoint x="190" y="233" />
              <mxPoint x="190" y="350" />
            </Array>
          </mxGeometry>
        </mxCell>
        <mxCell id="WFMInWg6QyuqaIIcyarB-217" value="Controllers" style="swimlane;" vertex="1" parent="WFMInWg6QyuqaIIcyarB-32">
          <mxGeometry x="320" y="100" width="200" height="520" as="geometry">
            <mxRectangle x="320" y="100" width="100" height="30" as="alternateBounds" />
          </mxGeometry>
        </mxCell>
        <mxCell id="WFMInWg6QyuqaIIcyarB-56" value="User" style="swimlane;fontStyle=0;childLayout=stackLayout;horizontal=1;startSize=26;fillColor=none;horizontalStack=0;resizeParent=1;resizeParentMax=0;resizeLast=0;collapsible=1;marginBottom=0;html=1;" vertex="1" parent="WFMInWg6QyuqaIIcyarB-217">
          <mxGeometry x="20" y="38" width="160" height="130" as="geometry" />
        </mxCell>
        <mxCell id="WFMInWg6QyuqaIIcyarB-57" value="create()" style="text;strokeColor=none;fillColor=none;align=left;verticalAlign=top;spacingLeft=4;spacingRight=4;overflow=hidden;rotatable=0;points=[[0,0.5],[1,0.5]];portConstraint=eastwest;whiteSpace=wrap;html=1;" vertex="1" parent="WFMInWg6QyuqaIIcyarB-56">
          <mxGeometry y="26" width="160" height="26" as="geometry" />
        </mxCell>
        <mxCell id="WFMInWg6QyuqaIIcyarB-58" value="read()" style="text;strokeColor=none;fillColor=none;align=left;verticalAlign=top;spacingLeft=4;spacingRight=4;overflow=hidden;rotatable=0;points=[[0,0.5],[1,0.5]];portConstraint=eastwest;whiteSpace=wrap;html=1;" vertex="1" parent="WFMInWg6QyuqaIIcyarB-56">
          <mxGeometry y="52" width="160" height="26" as="geometry" />
        </mxCell>
        <mxCell id="WFMInWg6QyuqaIIcyarB-59" value="update()" style="text;strokeColor=none;fillColor=none;align=left;verticalAlign=top;spacingLeft=4;spacingRight=4;overflow=hidden;rotatable=0;points=[[0,0.5],[1,0.5]];portConstraint=eastwest;whiteSpace=wrap;html=1;" vertex="1" parent="WFMInWg6QyuqaIIcyarB-56">
          <mxGeometry y="78" width="160" height="26" as="geometry" />
        </mxCell>
        <mxCell id="WFMInWg6QyuqaIIcyarB-192" value="delete()" style="text;strokeColor=none;fillColor=none;align=left;verticalAlign=top;spacingLeft=4;spacingRight=4;overflow=hidden;rotatable=0;points=[[0,0.5],[1,0.5]];portConstraint=eastwest;whiteSpace=wrap;html=1;" vertex="1" parent="WFMInWg6QyuqaIIcyarB-56">
          <mxGeometry y="104" width="160" height="26" as="geometry" />
        </mxCell>
        <mxCell id="WFMInWg6QyuqaIIcyarB-60" value="Group" style="swimlane;fontStyle=0;childLayout=stackLayout;horizontal=1;startSize=26;fillColor=none;horizontalStack=0;resizeParent=1;resizeParentMax=0;resizeLast=0;collapsible=1;marginBottom=0;html=1;" vertex="1" parent="WFMInWg6QyuqaIIcyarB-217">
          <mxGeometry x="15" y="190" width="160" height="130" as="geometry" />
        </mxCell>
        <mxCell id="WFMInWg6QyuqaIIcyarB-61" value="create(" style="text;strokeColor=none;fillColor=none;align=left;verticalAlign=top;spacingLeft=4;spacingRight=4;overflow=hidden;rotatable=0;points=[[0,0.5],[1,0.5]];portConstraint=eastwest;whiteSpace=wrap;html=1;" vertex="1" parent="WFMInWg6QyuqaIIcyarB-60">
          <mxGeometry y="26" width="160" height="26" as="geometry" />
        </mxCell>
        <mxCell id="WFMInWg6QyuqaIIcyarB-62" value="read()" style="text;strokeColor=none;fillColor=none;align=left;verticalAlign=top;spacingLeft=4;spacingRight=4;overflow=hidden;rotatable=0;points=[[0,0.5],[1,0.5]];portConstraint=eastwest;whiteSpace=wrap;html=1;" vertex="1" parent="WFMInWg6QyuqaIIcyarB-60">
          <mxGeometry y="52" width="160" height="26" as="geometry" />
        </mxCell>
        <mxCell id="WFMInWg6QyuqaIIcyarB-63" value="update()" style="text;strokeColor=none;fillColor=none;align=left;verticalAlign=top;spacingLeft=4;spacingRight=4;overflow=hidden;rotatable=0;points=[[0,0.5],[1,0.5]];portConstraint=eastwest;whiteSpace=wrap;html=1;" vertex="1" parent="WFMInWg6QyuqaIIcyarB-60">
          <mxGeometry y="78" width="160" height="26" as="geometry" />
        </mxCell>
        <mxCell id="WFMInWg6QyuqaIIcyarB-193" value="delete()" style="text;strokeColor=none;fillColor=none;align=left;verticalAlign=top;spacingLeft=4;spacingRight=4;overflow=hidden;rotatable=0;points=[[0,0.5],[1,0.5]];portConstraint=eastwest;whiteSpace=wrap;html=1;" vertex="1" parent="WFMInWg6QyuqaIIcyarB-60">
          <mxGeometry y="104" width="160" height="26" as="geometry" />
        </mxCell>
        <mxCell id="WFMInWg6QyuqaIIcyarB-93" style="edgeStyle=orthogonalEdgeStyle;rounded=0;orthogonalLoop=1;jettySize=auto;html=1;" edge="1" parent="WFMInWg6QyuqaIIcyarB-32" source="WFMInWg6QyuqaIIcyarB-34" target="WFMInWg6QyuqaIIcyarB-56">
          <mxGeometry relative="1" as="geometry" />
        </mxCell>
        <mxCell id="WFMInWg6QyuqaIIcyarB-121" style="edgeStyle=orthogonalEdgeStyle;rounded=0;orthogonalLoop=1;jettySize=auto;html=1;" edge="1" parent="WFMInWg6QyuqaIIcyarB-32" source="WFMInWg6QyuqaIIcyarB-50" target="WFMInWg6QyuqaIIcyarB-60">
          <mxGeometry relative="1" as="geometry" />
        </mxCell>
        <mxCell id="WFMInWg6QyuqaIIcyarB-120" style="edgeStyle=orthogonalEdgeStyle;rounded=0;orthogonalLoop=1;jettySize=auto;html=1;" edge="1" parent="WFMInWg6QyuqaIIcyarB-32" source="WFMInWg6QyuqaIIcyarB-50" target="WFMInWg6QyuqaIIcyarB-56">
          <mxGeometry relative="1" as="geometry">
            <Array as="points">
              <mxPoint x="285" y="310" />
              <mxPoint x="285" y="200" />
            </Array>
          </mxGeometry>
        </mxCell>
        <mxCell id="WFMInWg6QyuqaIIcyarB-123" style="edgeStyle=orthogonalEdgeStyle;rounded=0;orthogonalLoop=1;jettySize=auto;html=1;" edge="1" parent="WFMInWg6QyuqaIIcyarB-32" source="WFMInWg6QyuqaIIcyarB-201" target="WFMInWg6QyuqaIIcyarB-60">
          <mxGeometry relative="1" as="geometry">
            <Array as="points">
              <mxPoint x="535" y="330" />
              <mxPoint x="535" y="322" />
            </Array>
          </mxGeometry>
        </mxCell>
        <mxCell id="WFMInWg6QyuqaIIcyarB-124" style="edgeStyle=orthogonalEdgeStyle;rounded=0;orthogonalLoop=1;jettySize=auto;html=1;" edge="1" parent="WFMInWg6QyuqaIIcyarB-32" source="WFMInWg6QyuqaIIcyarB-81" target="WFMInWg6QyuqaIIcyarB-56">
          <mxGeometry relative="1" as="geometry" />
        </mxCell>
        <mxCell id="WFMInWg6QyuqaIIcyarB-125" style="edgeStyle=orthogonalEdgeStyle;rounded=0;orthogonalLoop=1;jettySize=auto;html=1;" edge="1" parent="WFMInWg6QyuqaIIcyarB-32" source="WFMInWg6QyuqaIIcyarB-85" target="WFMInWg6QyuqaIIcyarB-60">
          <mxGeometry relative="1" as="geometry">
            <Array as="points">
              <mxPoint x="555" y="520" />
              <mxPoint x="555" y="355" />
            </Array>
          </mxGeometry>
        </mxCell>
        <mxCell id="WFMInWg6QyuqaIIcyarB-220" style="edgeStyle=orthogonalEdgeStyle;rounded=0;orthogonalLoop=1;jettySize=auto;html=1;dashed=1;" edge="1" parent="WFMInWg6QyuqaIIcyarB-54" source="WFMInWg6QyuqaIIcyarB-218" target="WFMInWg6QyuqaIIcyarB-31">
          <mxGeometry relative="1" as="geometry">
            <Array as="points">
              <mxPoint x="310" y="555" />
              <mxPoint x="310" y="350" />
            </Array>
          </mxGeometry>
        </mxCell>
        <mxCell id="WFMInWg6QyuqaIIcyarB-218" value="Cliente" style="swimlane;" vertex="1" parent="WFMInWg6QyuqaIIcyarB-54">
          <mxGeometry x="40" y="450" width="220" height="210" as="geometry" />
        </mxCell>
        <mxCell id="WFMInWg6QyuqaIIcyarB-219" value="" style="dashed=0;outlineConnect=0;html=1;align=center;labelPosition=center;verticalLabelPosition=bottom;verticalAlign=top;shape=mxgraph.weblogos.chrome" vertex="1" parent="WFMInWg6QyuqaIIcyarB-218">
          <mxGeometry x="60" y="50" width="110" height="110" as="geometry" />
        </mxCell>
        <mxCell id="WFMInWg6QyuqaIIcyarB-221" style="edgeStyle=orthogonalEdgeStyle;rounded=0;orthogonalLoop=1;jettySize=auto;html=1;dashed=1;" edge="1" parent="WFMInWg6QyuqaIIcyarB-54" source="WFMInWg6QyuqaIIcyarB-31" target="WFMInWg6QyuqaIIcyarB-219">
          <mxGeometry relative="1" as="geometry">
            <Array as="points">
              <mxPoint x="310" y="350" />
              <mxPoint x="310" y="555" />
            </Array>
          </mxGeometry>
        </mxCell>
        <mxCell id="WFMInWg6QyuqaIIcyarB-222" value="Banco de Dados" style="swimlane;" vertex="1" parent="WFMInWg6QyuqaIIcyarB-54">
          <mxGeometry x="1170" y="50" width="240" height="660" as="geometry" />
        </mxCell>
        <mxCell id="WFMInWg6QyuqaIIcyarB-223" value="" style="image;aspect=fixed;html=1;points=[];align=center;fontSize=12;image=img/lib/azure2/databases/Azure_Database_PostgreSQL_Server.svg;" vertex="1" parent="WFMInWg6QyuqaIIcyarB-222">
          <mxGeometry x="70" y="200" width="85" height="113.33" as="geometry" />
        </mxCell>
        <mxCell id="WFMInWg6QyuqaIIcyarB-224" style="edgeStyle=orthogonalEdgeStyle;rounded=0;orthogonalLoop=1;jettySize=auto;html=1;" edge="1" parent="WFMInWg6QyuqaIIcyarB-54" source="WFMInWg6QyuqaIIcyarB-81" target="WFMInWg6QyuqaIIcyarB-223">
          <mxGeometry relative="1" as="geometry">
            <Array as="points">
              <mxPoint x="1120" y="307" />
              <mxPoint x="1120" y="307" />
            </Array>
          </mxGeometry>
        </mxCell>
        <mxCell id="WFMInWg6QyuqaIIcyarB-225" style="edgeStyle=orthogonalEdgeStyle;rounded=0;orthogonalLoop=1;jettySize=auto;html=1;" edge="1" parent="WFMInWg6QyuqaIIcyarB-54" source="WFMInWg6QyuqaIIcyarB-85" target="WFMInWg6QyuqaIIcyarB-223">
          <mxGeometry relative="1" as="geometry" />
        </mxCell>
        <mxCell id="WFMInWg6QyuqaIIcyarB-226" value="User" style="sketch=0;outlineConnect=0;fontColor=#232F3E;gradientColor=none;strokeColor=#232F3E;fillColor=#ffffff;dashed=0;verticalLabelPosition=bottom;verticalAlign=top;align=center;html=1;fontSize=12;fontStyle=0;aspect=fixed;shape=mxgraph.aws4.resourceIcon;resIcon=mxgraph.aws4.user;" vertex="1" parent="WFMInWg6QyuqaIIcyarB-54">
          <mxGeometry x="80" y="250" width="160" height="160" as="geometry" />
        </mxCell>
      </root>
    </mxGraphModel>
  </diagram>
</mxfile>
